<svg width="59" height="22" viewBox="0 0 59 22" fill="none" xmlns="http://www.w3.org/2000/svg">
<path d="M0 2C0 0.89543 0.895431 0 2 0H57C58.1046 0 59 0.895431 59 2V20C59 21.1046 58.1046 22 57 22H2C0.89543 22 0 21.1046 0 20V2Z" fill="#FFF7E6"/>
<path d="M11.3633 14.2266C11.6211 14.2266 11.8594 14.1738 12.0781 14.0684C12.2969 13.9629 12.4766 13.8184 12.6172 13.6348C12.7578 13.4473 12.8379 13.2344 12.8574 12.9961H13.8887C13.8691 13.3711 13.7422 13.7207 13.5078 14.0449C13.2773 14.3652 12.9746 14.625 12.5996 14.8242C12.2246 15.0195 11.8125 15.1172 11.3633 15.1172C10.8867 15.1172 10.4707 15.0332 10.1152 14.8652C9.76367 14.6973 9.4707 14.4668 9.23633 14.1738C9.00586 13.8809 8.83203 13.5449 8.71484 13.166C8.60156 12.7832 8.54492 12.3789 8.54492 11.9531V11.707C8.54492 11.2812 8.60156 10.8789 8.71484 10.5C8.83203 10.1172 9.00586 9.7793 9.23633 9.48633C9.4707 9.19336 9.76367 8.96289 10.1152 8.79492C10.4707 8.62695 10.8867 8.54297 11.3633 8.54297C11.8594 8.54297 12.293 8.64453 12.6641 8.84766C13.0352 9.04688 13.3262 9.32031 13.5371 9.66797C13.752 10.0117 13.8691 10.4023 13.8887 10.8398H12.8574C12.8379 10.5781 12.7637 10.3418 12.6348 10.1309C12.5098 9.91992 12.3379 9.75195 12.1191 9.62695C11.9043 9.49805 11.6523 9.43359 11.3633 9.43359C11.0312 9.43359 10.752 9.5 10.5254 9.63281C10.3027 9.76172 10.125 9.9375 9.99219 10.1602C9.86328 10.3789 9.76953 10.623 9.71094 10.8926C9.65625 11.1582 9.62891 11.4297 9.62891 11.707V11.9531C9.62891 12.2305 9.65625 12.5039 9.71094 12.7734C9.76562 13.043 9.85742 13.2871 9.98633 13.5059C10.1191 13.7246 10.2969 13.9004 10.5195 14.0332C10.7461 14.1621 11.0273 14.2266 11.3633 14.2266ZM14.8203 11.9004V11.7656C14.8203 11.3086 14.8867 10.8848 15.0195 10.4941C15.1523 10.0996 15.3438 9.75781 15.5938 9.46875C15.8438 9.17578 16.1465 8.94922 16.502 8.78906C16.8574 8.625 17.2559 8.54297 17.6973 8.54297C18.1426 8.54297 18.543 8.625 18.8984 8.78906C19.2578 8.94922 19.5625 9.17578 19.8125 9.46875C20.0664 9.75781 20.2598 10.0996 20.3926 10.4941C20.5254 10.8848 20.5918 11.3086 20.5918 11.7656V11.9004C20.5918 12.3574 20.5254 12.7812 20.3926 13.1719C20.2598 13.5625 20.0664 13.9043 19.8125 14.1973C19.5625 14.4863 19.2598 14.7129 18.9043 14.877C18.5527 15.0371 18.1543 15.1172 17.709 15.1172C17.2637 15.1172 16.8633 15.0371 16.5078 14.877C16.1523 14.7129 15.8477 14.4863 15.5938 14.1973C15.3438 13.9043 15.1523 13.5625 15.0195 13.1719C14.8867 12.7812 14.8203 12.3574 14.8203 11.9004ZM15.9043 11.7656V11.9004C15.9043 12.2168 15.9414 12.5156 16.0156 12.7969C16.0898 13.0742 16.2012 13.3203 16.3496 13.5352C16.502 13.75 16.6914 13.9199 16.918 14.0449C17.1445 14.166 17.4082 14.2266 17.709 14.2266C18.0059 14.2266 18.2656 14.166 18.4883 14.0449C18.7148 13.9199 18.9023 13.75 19.0508 13.5352C19.1992 13.3203 19.3105 13.0742 19.3848 12.7969C19.4629 12.5156 19.502 12.2168 19.502 11.9004V11.7656C19.502 11.4531 19.4629 11.1582 19.3848 10.8809C19.3105 10.5996 19.1973 10.3516 19.0449 10.1367C18.8965 9.91797 18.709 9.74609 18.4824 9.62109C18.2598 9.49609 17.998 9.43359 17.6973 9.43359C17.4004 9.43359 17.1387 9.49609 16.9121 9.62109C16.6895 9.74609 16.502 9.91797 16.3496 10.1367C16.2012 10.3516 16.0898 10.5996 16.0156 10.8809C15.9414 11.1582 15.9043 11.4531 15.9043 11.7656ZM21.6641 11.9004V11.7656C21.6641 11.3086 21.7305 10.8848 21.8633 10.4941C21.9961 10.0996 22.1875 9.75781 22.4375 9.46875C22.6875 9.17578 22.9902 8.94922 23.3457 8.78906C23.7012 8.625 24.0996 8.54297 24.541 8.54297C24.9863 8.54297 25.3867 8.625 25.7422 8.78906C26.1016 8.94922 26.4062 9.17578 26.6562 9.46875C26.9102 9.75781 27.1035 10.0996 27.2363 10.4941C27.3691 10.8848 27.4355 11.3086 27.4355 11.7656V11.9004C27.4355 12.3574 27.3691 12.7812 27.2363 13.1719C27.1035 13.5625 26.9102 13.9043 26.6562 14.1973C26.4062 14.4863 26.1035 14.7129 25.748 14.877C25.3965 15.0371 24.998 15.1172 24.5527 15.1172C24.1074 15.1172 23.707 15.0371 23.3516 14.877C22.9961 14.7129 22.6914 14.4863 22.4375 14.1973C22.1875 13.9043 21.9961 13.5625 21.8633 13.1719C21.7305 12.7812 21.6641 12.3574 21.6641 11.9004ZM22.748 11.7656V11.9004C22.748 12.2168 22.7852 12.5156 22.8594 12.7969C22.9336 13.0742 23.0449 13.3203 23.1934 13.5352C23.3457 13.75 23.5352 13.9199 23.7617 14.0449C23.9883 14.166 24.252 14.2266 24.5527 14.2266C24.8496 14.2266 25.1094 14.166 25.332 14.0449C25.5586 13.9199 25.7461 13.75 25.8945 13.5352C26.043 13.3203 26.1543 13.0742 26.2285 12.7969C26.3066 12.5156 26.3457 12.2168 26.3457 11.9004V11.7656C26.3457 11.4531 26.3066 11.1582 26.2285 10.8809C26.1543 10.5996 26.041 10.3516 25.8887 10.1367C25.7402 9.91797 25.5527 9.74609 25.3262 9.62109C25.1035 9.49609 24.8418 9.43359 24.541 9.43359C24.2441 9.43359 23.9824 9.49609 23.7559 9.62109C23.5332 9.74609 23.3457 9.91797 23.1934 10.1367C23.0449 10.3516 22.9336 10.5996 22.8594 10.8809C22.7852 11.1582 22.748 11.4531 22.748 11.7656ZM29.8848 6V15H28.7949V6H29.8848ZM33.7578 8.66016L30.9922 11.6191L29.4453 13.2246L29.3574 12.0703L30.4648 10.7461L32.4336 8.66016H33.7578ZM32.7676 15L30.5059 11.9766L31.0684 11.0098L34.0449 15H32.7676ZM36.0547 8.66016V15H34.9648V8.66016H36.0547ZM34.8828 6.97852C34.8828 6.80273 34.9355 6.6543 35.041 6.5332C35.1504 6.41211 35.3105 6.35156 35.5215 6.35156C35.7285 6.35156 35.8867 6.41211 35.9961 6.5332C36.1094 6.6543 36.166 6.80273 36.166 6.97852C36.166 7.14648 36.1094 7.29102 35.9961 7.41211C35.8867 7.5293 35.7285 7.58789 35.5215 7.58789C35.3105 7.58789 35.1504 7.5293 35.041 7.41211C34.9355 7.29102 34.8828 7.14648 34.8828 6.97852ZM38.8789 10.0137V15H37.7949V8.66016H38.8203L38.8789 10.0137ZM38.6211 11.5898L38.1699 11.5723C38.1738 11.1387 38.2383 10.7383 38.3633 10.3711C38.4883 10 38.6641 9.67773 38.8906 9.4043C39.1172 9.13086 39.3867 8.91992 39.6992 8.77148C40.0156 8.61914 40.3652 8.54297 40.748 8.54297C41.0605 8.54297 41.3418 8.58594 41.5918 8.67188C41.8418 8.75391 42.0547 8.88672 42.2305 9.07031C42.4102 9.25391 42.5469 9.49219 42.6406 9.78516C42.7344 10.0742 42.7812 10.4277 42.7812 10.8457V15H41.6914V10.834C41.6914 10.502 41.6426 10.2363 41.5449 10.0371C41.4473 9.83398 41.3047 9.6875 41.1172 9.59766C40.9297 9.50391 40.6992 9.45703 40.4258 9.45703C40.1562 9.45703 39.9102 9.51367 39.6875 9.62695C39.4688 9.74023 39.2793 9.89648 39.1191 10.0957C38.9629 10.2949 38.8398 10.5234 38.75 10.7812C38.6641 11.0352 38.6211 11.3047 38.6211 11.5898ZM48.5352 8.66016H49.5195V14.8652C49.5195 15.4238 49.4062 15.9004 49.1797 16.2949C48.9531 16.6895 48.6367 16.9883 48.2305 17.1914C47.8281 17.3984 47.3633 17.502 46.8359 17.502C46.6172 17.502 46.3594 17.4668 46.0625 17.3965C45.7695 17.3301 45.4805 17.2148 45.1953 17.0508C44.9141 16.8906 44.6777 16.6738 44.4863 16.4004L45.0547 15.7559C45.3203 16.0762 45.5977 16.2988 45.8867 16.4238C46.1797 16.5488 46.4688 16.6113 46.7539 16.6113C47.0977 16.6113 47.3945 16.5469 47.6445 16.418C47.8945 16.2891 48.0879 16.0977 48.2246 15.8438C48.3652 15.5938 48.4355 15.2852 48.4355 14.918V10.0547L48.5352 8.66016ZM44.1699 11.9004V11.7773C44.1699 11.293 44.2266 10.8535 44.3398 10.459C44.457 10.0605 44.623 9.71875 44.8379 9.43359C45.0566 9.14844 45.3203 8.92969 45.6289 8.77734C45.9375 8.62109 46.2852 8.54297 46.6719 8.54297C47.0703 8.54297 47.418 8.61328 47.7148 8.75391C48.0156 8.89062 48.2695 9.0918 48.4766 9.35742C48.6875 9.61914 48.8535 9.93555 48.9746 10.3066C49.0957 10.6777 49.1797 11.0977 49.2266 11.5664V12.1055C49.1836 12.5703 49.0996 12.9883 48.9746 13.3594C48.8535 13.7305 48.6875 14.0469 48.4766 14.3086C48.2695 14.5703 48.0156 14.7715 47.7148 14.9121C47.4141 15.0488 47.0625 15.1172 46.6602 15.1172C46.2812 15.1172 45.9375 15.0371 45.6289 14.877C45.3242 14.7168 45.0625 14.4922 44.8438 14.2031C44.625 13.9141 44.457 13.5742 44.3398 13.1836C44.2266 12.7891 44.1699 12.3613 44.1699 11.9004ZM45.2539 11.7773V11.9004C45.2539 12.2168 45.2852 12.5137 45.3477 12.791C45.4141 13.0684 45.5137 13.3125 45.6465 13.5234C45.7832 13.7344 45.957 13.9004 46.168 14.0215C46.3789 14.1387 46.6309 14.1973 46.9238 14.1973C47.2832 14.1973 47.5801 14.1211 47.8145 13.9688C48.0488 13.8164 48.2344 13.6152 48.3711 13.3652C48.5117 13.1152 48.6211 12.8438 48.6992 12.5508V11.1387C48.6562 10.9238 48.5898 10.7168 48.5 10.5176C48.4141 10.3145 48.3008 10.1348 48.1602 9.97852C48.0234 9.81836 47.8535 9.69141 47.6504 9.59766C47.4473 9.50391 47.209 9.45703 46.9355 9.45703C46.6387 9.45703 46.3828 9.51953 46.168 9.64453C45.957 9.76562 45.7832 9.93359 45.6465 10.1484C45.5137 10.3594 45.4141 10.6055 45.3477 10.8867C45.2852 11.1641 45.2539 11.4609 45.2539 11.7773Z" fill="#FA8C16"/>
<path d="M2 1H57V-1H2V1ZM58 2V20H60V2H58ZM57 21H2V23H57V21ZM1 20V2H-1V20H1ZM2 21C1.44772 21 1 20.5523 1 20H-1C-1 21.6569 0.343145 23 2 23V21ZM58 20C58 20.5523 57.5523 21 57 21V23C58.6569 23 60 21.6569 60 20H58ZM57 1C57.5523 1 58 1.44771 58 2H60C60 0.343146 58.6569 -1 57 -1V1ZM2 -1C0.343146 -1 -1 0.343145 -1 2H1C1 1.44772 1.44771 1 2 1V-1Z" fill="#FFD591"/>
</svg>
