<svg width="20" height="20" viewBox="0 0 20 20" fill="none" xmlns="http://www.w3.org/2000/svg">
<path d="M2.5 9.98042C2.5 10.1446 2.53233 10.3071 2.59515 10.4588C2.65797 10.6104 2.75004 10.7482 2.86612 10.8643C2.98219 10.9804 3.11999 11.0725 3.27165 11.1353C3.4233 11.1981 3.58585 11.2304 3.75 11.2304C3.91415 11.2304 4.0767 11.1981 4.22835 11.1353C4.38001 11.0725 4.51781 10.9804 4.63388 10.8643C4.74996 10.7482 4.84203 10.6104 4.90485 10.4588C4.96767 10.3071 5 10.1446 5 9.98042C5 9.81627 4.96767 9.65373 4.90485 9.50207C4.84203 9.35041 4.74996 9.21261 4.63388 9.09654C4.51781 8.98047 4.38001 8.88839 4.22835 8.82557C4.0767 8.76276 3.91415 8.73042 3.75 8.73042C3.58585 8.73042 3.4233 8.76276 3.27165 8.82557C3.11999 8.88839 2.98219 8.98047 2.86612 9.09654C2.75004 9.21261 2.65797 9.35041 2.59515 9.50207C2.53233 9.65373 2.5 9.81627 2.5 9.98042ZM8.75 9.98042C8.75 10.3119 8.8817 10.6299 9.11612 10.8643C9.35054 11.0987 9.66848 11.2304 10 11.2304C10.3315 11.2304 10.6495 11.0987 10.8839 10.8643C11.1183 10.6299 11.25 10.3119 11.25 9.98042C11.25 9.6489 11.1183 9.33096 10.8839 9.09654C10.6495 8.86212 10.3315 8.73042 10 8.73042C9.66848 8.73042 9.35054 8.86212 9.11612 9.09654C8.8817 9.33096 8.75 9.6489 8.75 9.98042ZM15 9.98042C15 10.3119 15.1317 10.6299 15.3661 10.8643C15.6005 11.0987 15.9185 11.2304 16.25 11.2304C16.5815 11.2304 16.8995 11.0987 17.1339 10.8643C17.3683 10.6299 17.5 10.3119 17.5 9.98042C17.5 9.6489 17.3683 9.33096 17.1339 9.09654C16.8995 8.86212 16.5815 8.73042 16.25 8.73042C15.9185 8.73042 15.6005 8.86212 15.3661 9.09654C15.1317 9.33096 15 9.6489 15 9.98042Z" fill="#BFBFBF"/>
</svg>
