<svg width="20" height="20" viewBox="0 0 20 20" fill="none" xmlns="http://www.w3.org/2000/svg">
<path d="M18.7503 9.998H17.5003C17.4021 9.998 17.3218 10.0784 17.3218 10.1766V17.3194H2.67892V2.67657H9.82178C9.91999 2.67657 10.0003 2.59621 10.0003 2.498V1.248C10.0003 1.14978 9.91999 1.06943 9.82178 1.06943H1.78606C1.39097 1.06943 1.07178 1.38862 1.07178 1.78371V18.2123C1.07178 18.6074 1.39097 18.9266 1.78606 18.9266H18.2146C18.6097 18.9266 18.9289 18.6074 18.9289 18.2123V10.1766C18.9289 10.0784 18.8486 9.998 18.7503 9.998Z" fill="#359EFF"/>
<path d="M6.51583 10.5092L6.47342 13.1632C6.47118 13.3618 6.6319 13.5248 6.83056 13.5248H6.83949L9.47341 13.4601C9.51806 13.4578 9.5627 13.44 9.59395 13.4087L18.8774 4.14532C18.9466 4.07612 18.9466 3.96228 18.8774 3.89309L16.1029 1.12077C16.0672 1.08505 16.0225 1.06943 15.9756 1.06943C15.9288 1.06943 15.8841 1.08728 15.8484 1.12077L6.56717 10.3842C6.53493 10.4179 6.51659 10.4625 6.51583 10.5092ZM7.93324 11.0359L15.9756 3.01139L16.9846 4.01809L8.9377 12.0471L7.91761 12.0717L7.93324 11.0359Z" fill="#359EFF"/>
</svg>
