<svg width="14" height="14" viewBox="0 0 14 14" fill="none" xmlns="http://www.w3.org/2000/svg">
<path d="M12.4632 10.2884C12.0252 9.84999 11.5134 9.4922 10.9512 9.23139C11.7439 8.58916 12.2497 7.60919 12.2497 6.51022C12.2497 4.57128 10.6327 2.98057 8.69379 3.01032C6.78459 3.04007 5.24639 4.59578 5.24639 6.51022C5.24639 7.60919 5.75387 8.58916 6.54485 9.23139C5.9826 9.49201 5.47077 9.84982 5.0329 10.2884C4.07742 11.2456 3.53494 12.509 3.49994 13.8565C3.49947 13.8752 3.50275 13.8938 3.50958 13.9112C3.5164 13.9285 3.52664 13.9444 3.53969 13.9578C3.55273 13.9711 3.56832 13.9818 3.58554 13.989C3.60276 13.9963 3.62125 14 3.63994 14H4.61991C4.69516 14 4.75815 13.9405 4.7599 13.8653C4.79315 12.8503 5.20439 11.9001 5.92712 11.1791C6.29695 10.8073 6.73686 10.5125 7.22137 10.3119C7.70588 10.1112 8.22537 10.0087 8.74979 10.0101C9.81551 10.0101 10.8182 10.4249 11.5725 11.1791C12.2934 11.9001 12.7047 12.8503 12.7397 13.8653C12.7414 13.9405 12.8044 14 12.8797 14H13.8596C13.8783 14 13.8968 13.9963 13.914 13.989C13.9312 13.9818 13.9468 13.9711 13.9599 13.9578C13.9729 13.9444 13.9832 13.9285 13.99 13.9112C13.9968 13.8938 14.0001 13.8752 13.9996 13.8565C13.9646 12.509 13.4221 11.2456 12.4632 10.2884ZM8.74979 8.75015C8.1513 8.75015 7.58782 8.51741 7.16608 8.09392C6.95443 7.88394 6.78725 7.63348 6.6745 7.35747C6.56175 7.08147 6.50576 6.78559 6.50985 6.48747C6.5151 5.91349 6.74435 5.35875 7.14508 4.94752C7.56507 4.51703 8.12681 4.27729 8.72704 4.27029C9.32027 4.26504 9.896 4.49603 10.3195 4.91077C10.7535 5.336 10.9915 5.90474 10.9915 6.51022C10.9915 7.1087 10.7587 7.67044 10.3352 8.09392C10.1275 8.30268 9.88037 8.46817 9.60823 8.58081C9.33609 8.69345 9.04432 8.75101 8.74979 8.75015ZM4.36617 6.97221C4.35042 6.81996 4.34167 6.66597 4.34167 6.51022C4.34167 6.23198 4.36792 5.96074 4.41691 5.69649C4.42916 5.6335 4.39591 5.56875 4.33817 5.5425C4.10017 5.43575 3.88143 5.28876 3.69244 5.10326C3.46974 4.88733 3.29449 4.62735 3.17789 4.3399C3.06128 4.05246 3.00588 3.74387 3.0152 3.43381C3.03095 2.87208 3.2567 2.33834 3.65044 1.93585C4.08267 1.49312 4.66366 1.25162 5.28139 1.25862C5.83962 1.26387 6.37861 1.47912 6.78634 1.86061C6.92459 1.9901 7.04359 2.1336 7.14333 2.28759C7.17833 2.34184 7.24658 2.36459 7.30608 2.34359C7.61407 2.23685 7.93956 2.1616 8.2738 2.1266C8.3718 2.1161 8.4278 2.0111 8.38405 1.9236C7.81531 0.798387 6.65335 0.02141 5.30939 0.000410603C3.36869 -0.0293385 1.75174 1.56136 1.75174 3.49856C1.75174 4.59753 2.25748 5.5775 3.0502 6.21973C2.49372 6.47697 1.98099 6.83221 1.5365 7.2767C0.577527 8.23392 0.0350427 9.49738 4.37592e-05 10.8466C-0.000423311 10.8653 0.00285264 10.8839 0.00967868 10.9012C0.0165047 10.9186 0.0267427 10.9345 0.0397893 10.9479C0.0528359 10.9612 0.0684274 10.9719 0.0856447 10.9791C0.102862 10.9864 0.121357 10.9901 0.14004 10.9901H1.12176C1.19701 10.9901 1.26001 10.9306 1.26176 10.8553C1.29501 9.84037 1.70624 8.89015 2.42897 8.16917C2.94346 7.65469 3.57344 7.2977 4.26117 7.12445C4.32942 7.10695 4.37492 7.0422 4.36617 6.97221Z" fill="black" fill-opacity="0.85"/>
</svg>
