<svg width="80" height="22" viewBox="0 0 80 22" fill="none" xmlns="http://www.w3.org/2000/svg">
<path d="M0 2C0 0.895434 0.895431 3.8147e-06 2 3.8147e-06H78C79.1046 3.8147e-06 80 0.895434 80 2V20C80 21.1046 79.1046 22 78 22H2C0.895429 22 0 21.1046 0 20V2Z" fill="#F6FFED"/>
<path d="M11.3633 14.2266C11.6211 14.2266 11.8594 14.1738 12.0781 14.0684C12.2969 13.9629 12.4766 13.8184 12.6172 13.6348C12.7578 13.4473 12.8379 13.2344 12.8574 12.9961H13.8887C13.8691 13.3711 13.7422 13.7207 13.5078 14.0449C13.2773 14.3652 12.9746 14.625 12.5996 14.8242C12.2246 15.0195 11.8125 15.1172 11.3633 15.1172C10.8867 15.1172 10.4707 15.0332 10.1152 14.8652C9.76367 14.6973 9.4707 14.4668 9.23633 14.1738C9.00586 13.8809 8.83203 13.5449 8.71484 13.166C8.60156 12.7832 8.54492 12.3789 8.54492 11.9531V11.707C8.54492 11.2813 8.60156 10.8789 8.71484 10.5C8.83203 10.1172 9.00586 9.7793 9.23633 9.48633C9.4707 9.19336 9.76367 8.96289 10.1152 8.79493C10.4707 8.62696 10.8867 8.54297 11.3633 8.54297C11.8594 8.54297 12.293 8.64454 12.6641 8.84766C13.0352 9.04688 13.3262 9.32032 13.5371 9.66797C13.752 10.0117 13.8691 10.4023 13.8887 10.8398H12.8574C12.8379 10.5781 12.7637 10.3418 12.6348 10.1309C12.5098 9.91993 12.3379 9.75196 12.1191 9.62696C11.9043 9.49805 11.6523 9.4336 11.3633 9.4336C11.0312 9.4336 10.752 9.5 10.5254 9.63282C10.3027 9.76172 10.125 9.9375 9.99219 10.1602C9.86328 10.3789 9.76953 10.6231 9.71094 10.8926C9.65625 11.1582 9.62891 11.4297 9.62891 11.707V11.9531C9.62891 12.2305 9.65625 12.5039 9.71094 12.7734C9.76562 13.043 9.85742 13.2871 9.98633 13.5059C10.1191 13.7246 10.2969 13.9004 10.5195 14.0332C10.7461 14.1621 11.0273 14.2266 11.3633 14.2266ZM14.8203 11.9004V11.7656C14.8203 11.3086 14.8867 10.8848 15.0195 10.4941C15.1523 10.0996 15.3438 9.75782 15.5938 9.46875C15.8438 9.17579 16.1465 8.94922 16.502 8.78907C16.8574 8.625 17.2559 8.54297 17.6973 8.54297C18.1426 8.54297 18.543 8.625 18.8984 8.78907C19.2578 8.94922 19.5625 9.17579 19.8125 9.46875C20.0664 9.75782 20.2598 10.0996 20.3926 10.4941C20.5254 10.8848 20.5918 11.3086 20.5918 11.7656V11.9004C20.5918 12.3574 20.5254 12.7813 20.3926 13.1719C20.2598 13.5625 20.0664 13.9043 19.8125 14.1973C19.5625 14.4863 19.2598 14.7129 18.9043 14.877C18.5527 15.0371 18.1543 15.1172 17.709 15.1172C17.2637 15.1172 16.8633 15.0371 16.5078 14.877C16.1523 14.7129 15.8477 14.4863 15.5938 14.1973C15.3438 13.9043 15.1523 13.5625 15.0195 13.1719C14.8867 12.7813 14.8203 12.3574 14.8203 11.9004ZM15.9043 11.7656V11.9004C15.9043 12.2168 15.9414 12.5156 16.0156 12.7969C16.0898 13.0742 16.2012 13.3203 16.3496 13.5352C16.502 13.75 16.6914 13.9199 16.918 14.0449C17.1445 14.166 17.4082 14.2266 17.709 14.2266C18.0059 14.2266 18.2656 14.166 18.4883 14.0449C18.7148 13.9199 18.9023 13.75 19.0508 13.5352C19.1992 13.3203 19.3105 13.0742 19.3848 12.7969C19.4629 12.5156 19.502 12.2168 19.502 11.9004V11.7656C19.502 11.4531 19.4629 11.1582 19.3848 10.8809C19.3105 10.5996 19.1973 10.3516 19.0449 10.1367C18.8965 9.91797 18.709 9.7461 18.4824 9.6211C18.2598 9.4961 17.998 9.4336 17.6973 9.4336C17.4004 9.4336 17.1387 9.4961 16.9121 9.6211C16.6895 9.7461 16.502 9.91797 16.3496 10.1367C16.2012 10.3516 16.0898 10.5996 16.0156 10.8809C15.9414 11.1582 15.9043 11.4531 15.9043 11.7656ZM21.6641 11.9004V11.7656C21.6641 11.3086 21.7305 10.8848 21.8633 10.4941C21.9961 10.0996 22.1875 9.75782 22.4375 9.46875C22.6875 9.17579 22.9902 8.94922 23.3457 8.78907C23.7012 8.625 24.0996 8.54297 24.541 8.54297C24.9863 8.54297 25.3867 8.625 25.7422 8.78907C26.1016 8.94922 26.4062 9.17579 26.6562 9.46875C26.9102 9.75782 27.1035 10.0996 27.2363 10.4941C27.3691 10.8848 27.4355 11.3086 27.4355 11.7656V11.9004C27.4355 12.3574 27.3691 12.7813 27.2363 13.1719C27.1035 13.5625 26.9102 13.9043 26.6562 14.1973C26.4062 14.4863 26.1035 14.7129 25.748 14.877C25.3965 15.0371 24.998 15.1172 24.5527 15.1172C24.1074 15.1172 23.707 15.0371 23.3516 14.877C22.9961 14.7129 22.6914 14.4863 22.4375 14.1973C22.1875 13.9043 21.9961 13.5625 21.8633 13.1719C21.7305 12.7813 21.6641 12.3574 21.6641 11.9004ZM22.748 11.7656V11.9004C22.748 12.2168 22.7852 12.5156 22.8594 12.7969C22.9336 13.0742 23.0449 13.3203 23.1934 13.5352C23.3457 13.75 23.5352 13.9199 23.7617 14.0449C23.9883 14.166 24.252 14.2266 24.5527 14.2266C24.8496 14.2266 25.1094 14.166 25.332 14.0449C25.5586 13.9199 25.7461 13.75 25.8945 13.5352C26.043 13.3203 26.1543 13.0742 26.2285 12.7969C26.3066 12.5156 26.3457 12.2168 26.3457 11.9004V11.7656C26.3457 11.4531 26.3066 11.1582 26.2285 10.8809C26.1543 10.5996 26.041 10.3516 25.8887 10.1367C25.7402 9.91797 25.5527 9.7461 25.3262 9.6211C25.1035 9.4961 24.8418 9.4336 24.541 9.4336C24.2441 9.4336 23.9824 9.4961 23.7559 9.6211C23.5332 9.7461 23.3457 9.91797 23.1934 10.1367C23.0449 10.3516 22.9336 10.5996 22.8594 10.8809C22.7852 11.1582 22.748 11.4531 22.748 11.7656ZM29.8789 9.87891V17.4375H28.7891V8.66016H29.7852L29.8789 9.87891ZM34.1504 11.7773V11.9004C34.1504 12.3613 34.0957 12.7891 33.9863 13.1836C33.877 13.5742 33.7168 13.9141 33.5059 14.2031C33.2988 14.4922 33.043 14.7168 32.7383 14.877C32.4336 15.0371 32.084 15.1172 31.6895 15.1172C31.2871 15.1172 30.9316 15.0508 30.623 14.918C30.3145 14.7852 30.0527 14.5918 29.8379 14.3379C29.623 14.084 29.4512 13.7793 29.3223 13.4238C29.1973 13.0684 29.1113 12.668 29.0645 12.2227V11.5664C29.1113 11.0977 29.1992 10.6777 29.3281 10.3066C29.457 9.93555 29.627 9.61914 29.8379 9.35743C30.0527 9.0918 30.3125 8.89063 30.6172 8.75391C30.9219 8.61329 31.2734 8.54297 31.6719 8.54297C32.0703 8.54297 32.4238 8.6211 32.7324 8.77735C33.041 8.92969 33.3008 9.14844 33.5117 9.4336C33.7227 9.71875 33.8809 10.0606 33.9863 10.459C34.0957 10.8535 34.1504 11.293 34.1504 11.7773ZM33.0605 11.9004V11.7773C33.0605 11.4609 33.0273 11.1641 32.9609 10.8867C32.8945 10.6055 32.791 10.3594 32.6504 10.1484C32.5137 9.9336 32.3379 9.76563 32.123 9.64454C31.9082 9.51954 31.6523 9.45704 31.3555 9.45704C31.082 9.45704 30.8438 9.50391 30.6406 9.59766C30.4414 9.69141 30.2715 9.81836 30.1309 9.97852C29.9902 10.1348 29.875 10.3145 29.7852 10.5176C29.6992 10.7168 29.6348 10.9238 29.5918 11.1387V12.6563C29.6699 12.9297 29.7793 13.1875 29.9199 13.4297C30.0605 13.668 30.248 13.8613 30.4824 14.0098C30.7168 14.1543 31.0117 14.2266 31.3672 14.2266C31.6602 14.2266 31.9121 14.166 32.123 14.0449C32.3379 13.9199 32.5137 13.75 32.6504 13.5352C32.791 13.3203 32.8945 13.0742 32.9609 12.7969C33.0273 12.5156 33.0605 12.2168 33.0605 11.9004ZM38.1641 15.1172C37.7227 15.1172 37.3223 15.043 36.9629 14.8945C36.6074 14.7422 36.3008 14.5293 36.043 14.2559C35.7891 13.9824 35.5938 13.6582 35.457 13.2832C35.3203 12.9082 35.252 12.4981 35.252 12.0527V11.8066C35.252 11.291 35.3281 10.832 35.4805 10.4297C35.6328 10.0234 35.8398 9.67969 36.1016 9.39844C36.3633 9.11719 36.6602 8.9043 36.9922 8.75977C37.3242 8.61524 37.668 8.54297 38.0234 8.54297C38.4766 8.54297 38.8672 8.6211 39.1953 8.77735C39.5273 8.9336 39.7988 9.15235 40.0098 9.4336C40.2207 9.71094 40.377 10.0391 40.4785 10.418C40.5801 10.793 40.6309 11.2031 40.6309 11.6484V12.1348H35.8965V11.25H39.5469V11.168C39.5312 10.8867 39.4727 10.6133 39.3711 10.3477C39.2734 10.082 39.1172 9.86329 38.9023 9.69141C38.6875 9.51954 38.3945 9.4336 38.0234 9.4336C37.7773 9.4336 37.5508 9.48633 37.3438 9.5918C37.1367 9.69336 36.959 9.84571 36.8105 10.0488C36.6621 10.252 36.5469 10.5 36.4648 10.793C36.3828 11.0859 36.3418 11.4238 36.3418 11.8066V12.0527C36.3418 12.3535 36.3828 12.6367 36.4648 12.9023C36.5508 13.1641 36.6738 13.3945 36.834 13.5938C36.998 13.793 37.1953 13.9492 37.4258 14.0625C37.6602 14.1758 37.9258 14.2324 38.2227 14.2324C38.6055 14.2324 38.9297 14.1543 39.1953 13.9981C39.4609 13.8418 39.6934 13.6328 39.8926 13.3711L40.5488 13.8926C40.4121 14.0996 40.2383 14.2969 40.0273 14.4844C39.8164 14.6719 39.5566 14.8242 39.248 14.9414C38.9434 15.0586 38.582 15.1172 38.1641 15.1172ZM42.9805 9.65625V15H41.8965V8.66016H42.9512L42.9805 9.65625ZM44.9609 8.625L44.9551 9.63282C44.8652 9.61329 44.7793 9.60157 44.6973 9.59766C44.6191 9.58985 44.5293 9.58594 44.4277 9.58594C44.1777 9.58594 43.957 9.625 43.7656 9.70313C43.5742 9.78125 43.4121 9.89063 43.2793 10.0313C43.1465 10.1719 43.041 10.3398 42.9629 10.5352C42.8887 10.7266 42.8398 10.9375 42.8164 11.168L42.5117 11.3438C42.5117 10.9609 42.5488 10.6016 42.623 10.2656C42.7012 9.92969 42.8203 9.63282 42.9805 9.375C43.1406 9.11329 43.3438 8.91016 43.5898 8.76563C43.8398 8.61719 44.1367 8.54297 44.4805 8.54297C44.5586 8.54297 44.6484 8.55274 44.75 8.57227C44.8516 8.58789 44.9219 8.60547 44.9609 8.625ZM49.4668 13.916V10.6523C49.4668 10.4023 49.416 10.1856 49.3145 10.002C49.2168 9.81446 49.0684 9.66993 48.8691 9.56836C48.6699 9.4668 48.4238 9.41602 48.1309 9.41602C47.8574 9.41602 47.6172 9.46289 47.4102 9.55664C47.207 9.65039 47.0469 9.77344 46.9297 9.92579C46.8164 10.0781 46.7598 10.2422 46.7598 10.418H45.6758C45.6758 10.1914 45.7344 9.9668 45.8516 9.74414C45.9688 9.52149 46.1367 9.32032 46.3555 9.14063C46.5781 8.95704 46.8438 8.8125 47.1523 8.70704C47.4648 8.59766 47.8125 8.54297 48.1953 8.54297C48.6562 8.54297 49.0625 8.6211 49.4141 8.77735C49.7695 8.9336 50.0469 9.16993 50.2461 9.48633C50.4492 9.79883 50.5508 10.1914 50.5508 10.6641V13.6172C50.5508 13.8281 50.5684 14.0527 50.6035 14.291C50.6426 14.5293 50.6992 14.7344 50.7734 14.9063V15H49.6426C49.5879 14.875 49.5449 14.709 49.5137 14.502C49.4824 14.291 49.4668 14.0957 49.4668 13.916ZM49.6543 11.1563L49.666 11.918H48.5703C48.2617 11.918 47.9863 11.9434 47.7441 11.9941C47.502 12.041 47.2988 12.1133 47.1348 12.2109C46.9707 12.3086 46.8457 12.4316 46.7598 12.5801C46.6738 12.7246 46.6309 12.8945 46.6309 13.0898C46.6309 13.2891 46.6758 13.4707 46.7656 13.6348C46.8555 13.7988 46.9902 13.9297 47.1699 14.0273C47.3535 14.1211 47.5781 14.168 47.8438 14.168C48.1758 14.168 48.4688 14.0977 48.7227 13.957C48.9766 13.8164 49.1777 13.6445 49.3262 13.4414C49.4785 13.2383 49.5605 13.041 49.5723 12.8496L50.0352 13.3711C50.0078 13.5352 49.9336 13.7168 49.8125 13.916C49.6914 14.1152 49.5293 14.3066 49.3262 14.4902C49.127 14.6699 48.8887 14.8203 48.6113 14.9414C48.3379 15.0586 48.0293 15.1172 47.6855 15.1172C47.2559 15.1172 46.8789 15.0332 46.5547 14.8652C46.2344 14.6973 45.9844 14.4727 45.8047 14.1914C45.6289 13.9063 45.541 13.5879 45.541 13.2363C45.541 12.8965 45.6074 12.5977 45.7402 12.3398C45.873 12.0781 46.0645 11.8613 46.3145 11.6895C46.5645 11.5137 46.8652 11.3809 47.2168 11.291C47.5684 11.2012 47.9609 11.1563 48.3945 11.1563H49.6543ZM54.9102 8.66016V9.49219H51.4824V8.66016H54.9102ZM52.6426 7.11914H53.7266V13.4297C53.7266 13.6445 53.7598 13.8066 53.8262 13.916C53.8926 14.0254 53.9785 14.0977 54.084 14.1328C54.1895 14.168 54.3027 14.1856 54.4238 14.1856C54.5137 14.1856 54.6074 14.1777 54.7051 14.1621C54.8066 14.1426 54.8828 14.127 54.9336 14.1152L54.9395 15C54.8535 15.0273 54.7402 15.0527 54.5996 15.0762C54.4629 15.1035 54.2969 15.1172 54.1016 15.1172C53.8359 15.1172 53.5918 15.0645 53.3691 14.959C53.1465 14.8535 52.9688 14.6777 52.8359 14.4316C52.707 14.1816 52.6426 13.8457 52.6426 13.4238V7.11914ZM57.3594 8.66016V15H56.2695V8.66016H57.3594ZM56.1875 6.97852C56.1875 6.80274 56.2402 6.6543 56.3457 6.53321C56.4551 6.41211 56.6152 6.35157 56.8262 6.35157C57.0332 6.35157 57.1914 6.41211 57.3008 6.53321C57.4141 6.6543 57.4707 6.80274 57.4707 6.97852C57.4707 7.14649 57.4141 7.29102 57.3008 7.41211C57.1914 7.5293 57.0332 7.58789 56.8262 7.58789C56.6152 7.58789 56.4551 7.5293 56.3457 7.41211C56.2402 7.29102 56.1875 7.14649 56.1875 6.97852ZM60.1836 10.0137V15H59.0996V8.66016H60.125L60.1836 10.0137ZM59.9258 11.5898L59.4746 11.5723C59.4785 11.1387 59.543 10.7383 59.668 10.3711C59.793 10 59.9688 9.67774 60.1953 9.4043C60.4219 9.13086 60.6914 8.91993 61.0039 8.77149C61.3203 8.61914 61.6699 8.54297 62.0527 8.54297C62.3652 8.54297 62.6465 8.58594 62.8965 8.67188C63.1465 8.75391 63.3594 8.88672 63.5352 9.07032C63.7148 9.25391 63.8516 9.49219 63.9453 9.78516C64.0391 10.0742 64.0859 10.4277 64.0859 10.8457V15H62.9961V10.834C62.9961 10.502 62.9473 10.2363 62.8496 10.0371C62.752 9.83399 62.6094 9.6875 62.4219 9.59766C62.2344 9.50391 62.0039 9.45704 61.7305 9.45704C61.4609 9.45704 61.2148 9.51368 60.9922 9.62696C60.7734 9.74024 60.584 9.89649 60.4238 10.0957C60.2676 10.2949 60.1445 10.5234 60.0547 10.7813C59.9688 11.0352 59.9258 11.3047 59.9258 11.5898ZM69.8398 8.66016H70.8242V14.8652C70.8242 15.4238 70.7109 15.9004 70.4844 16.2949C70.2578 16.6895 69.9414 16.9883 69.5352 17.1914C69.1328 17.3984 68.668 17.502 68.1406 17.502C67.9219 17.502 67.6641 17.4668 67.3672 17.3965C67.0742 17.3301 66.7852 17.2148 66.5 17.0508C66.2188 16.8906 65.9824 16.6738 65.791 16.4004L66.3594 15.7559C66.625 16.0762 66.9023 16.2988 67.1914 16.4238C67.4844 16.5488 67.7734 16.6113 68.0586 16.6113C68.4023 16.6113 68.6992 16.5469 68.9492 16.418C69.1992 16.2891 69.3926 16.0977 69.5293 15.8438C69.6699 15.5938 69.7402 15.2852 69.7402 14.918V10.0547L69.8398 8.66016ZM65.4746 11.9004V11.7773C65.4746 11.293 65.5312 10.8535 65.6445 10.459C65.7617 10.0606 65.9277 9.71875 66.1426 9.4336C66.3613 9.14844 66.625 8.92969 66.9336 8.77735C67.2422 8.6211 67.5898 8.54297 67.9766 8.54297C68.375 8.54297 68.7227 8.61329 69.0195 8.75391C69.3203 8.89063 69.5742 9.0918 69.7812 9.35743C69.9922 9.61914 70.1582 9.93555 70.2793 10.3066C70.4004 10.6777 70.4844 11.0977 70.5312 11.5664V12.1055C70.4883 12.5703 70.4043 12.9883 70.2793 13.3594C70.1582 13.7305 69.9922 14.0469 69.7812 14.3086C69.5742 14.5703 69.3203 14.7715 69.0195 14.9121C68.7188 15.0488 68.3672 15.1172 67.9648 15.1172C67.5859 15.1172 67.2422 15.0371 66.9336 14.877C66.6289 14.7168 66.3672 14.4922 66.1484 14.2031C65.9297 13.9141 65.7617 13.5742 65.6445 13.1836C65.5312 12.7891 65.4746 12.3613 65.4746 11.9004ZM66.5586 11.7773V11.9004C66.5586 12.2168 66.5898 12.5137 66.6523 12.791C66.7188 13.0684 66.8184 13.3125 66.9512 13.5234C67.0879 13.7344 67.2617 13.9004 67.4727 14.0215C67.6836 14.1387 67.9355 14.1973 68.2285 14.1973C68.5879 14.1973 68.8848 14.1211 69.1191 13.9688C69.3535 13.8164 69.5391 13.6152 69.6758 13.3652C69.8164 13.1152 69.9258 12.8438 70.0039 12.5508V11.1387C69.9609 10.9238 69.8945 10.7168 69.8047 10.5176C69.7188 10.3145 69.6055 10.1348 69.4648 9.97852C69.3281 9.81836 69.1582 9.69141 68.9551 9.59766C68.752 9.50391 68.5137 9.45704 68.2402 9.45704C67.9434 9.45704 67.6875 9.51954 67.4727 9.64454C67.2617 9.76563 67.0879 9.9336 66.9512 10.1484C66.8184 10.3594 66.7188 10.6055 66.6523 10.8867C66.5898 11.1641 66.5586 11.4609 66.5586 11.7773Z" fill="#52C41A"/>
<path d="M2 1H78V-0.999996H2V1ZM79 2V20H81V2H79ZM78 21H2V23H78V21ZM1 20V2H-1V20H1ZM2 21C1.44771 21 1 20.5523 1 20H-1C-1 21.6569 0.343143 23 2 23V21ZM79 20C79 20.5523 78.5523 21 78 21V23C79.6569 23 81 21.6569 81 20H79ZM78 1C78.5523 1 79 1.44772 79 2H81C81 0.343151 79.6569 -0.999996 78 -0.999996V1ZM2 -0.999996C0.343146 -0.999996 -1 0.343149 -1 2H1C1 1.44772 1.44771 1 2 1V-0.999996Z" fill="#B7EB8F"/>
</svg>
