<svg width="62" height="22" viewBox="0 0 62 22" fill="none" xmlns="http://www.w3.org/2000/svg">
<path d="M0 2C0 0.89543 0.89543 0 2 0H60C61.1046 0 62 0.895431 62 2V20C62 21.1046 61.1046 22 60 22H2C0.895432 22 0 21.1046 0 20V2Z" fill="#E6F7FF"/>
<path d="M9.91016 10.0137V15H8.82617V8.66016H9.85156L9.91016 10.0137ZM9.65234 11.5898L9.20117 11.5723C9.20508 11.1387 9.26953 10.7383 9.39453 10.3711C9.51953 10 9.69531 9.67773 9.92188 9.4043C10.1484 9.13086 10.418 8.91992 10.7305 8.77148C11.0469 8.61914 11.3965 8.54297 11.7793 8.54297C12.0918 8.54297 12.373 8.58594 12.623 8.67188C12.873 8.75391 13.0859 8.88672 13.2617 9.07031C13.4414 9.25391 13.5781 9.49219 13.6719 9.78516C13.7656 10.0742 13.8125 10.4277 13.8125 10.8457V15H12.7227V10.834C12.7227 10.502 12.6738 10.2363 12.5762 10.0371C12.4785 9.83398 12.3359 9.6875 12.1484 9.59766C11.9609 9.50391 11.7305 9.45703 11.457 9.45703C11.1875 9.45703 10.9414 9.51367 10.7188 9.62695C10.5 9.74023 10.3105 9.89648 10.1504 10.0957C9.99414 10.2949 9.87109 10.5234 9.78125 10.7812C9.69531 11.0352 9.65234 11.3047 9.65234 11.5898ZM15.1719 11.9004V11.7656C15.1719 11.3086 15.2383 10.8848 15.3711 10.4941C15.5039 10.0996 15.6953 9.75781 15.9453 9.46875C16.1953 9.17578 16.498 8.94922 16.8535 8.78906C17.209 8.625 17.6074 8.54297 18.0488 8.54297C18.4941 8.54297 18.8945 8.625 19.25 8.78906C19.6094 8.94922 19.9141 9.17578 20.1641 9.46875C20.418 9.75781 20.6113 10.0996 20.7441 10.4941C20.877 10.8848 20.9434 11.3086 20.9434 11.7656V11.9004C20.9434 12.3574 20.877 12.7812 20.7441 13.1719C20.6113 13.5625 20.418 13.9043 20.1641 14.1973C19.9141 14.4863 19.6113 14.7129 19.2559 14.877C18.9043 15.0371 18.5059 15.1172 18.0605 15.1172C17.6152 15.1172 17.2148 15.0371 16.8594 14.877C16.5039 14.7129 16.1992 14.4863 15.9453 14.1973C15.6953 13.9043 15.5039 13.5625 15.3711 13.1719C15.2383 12.7812 15.1719 12.3574 15.1719 11.9004ZM16.2559 11.7656V11.9004C16.2559 12.2168 16.293 12.5156 16.3672 12.7969C16.4414 13.0742 16.5527 13.3203 16.7012 13.5352C16.8535 13.75 17.043 13.9199 17.2695 14.0449C17.4961 14.166 17.7598 14.2266 18.0605 14.2266C18.3574 14.2266 18.6172 14.166 18.8398 14.0449C19.0664 13.9199 19.2539 13.75 19.4023 13.5352C19.5508 13.3203 19.6621 13.0742 19.7363 12.7969C19.8145 12.5156 19.8535 12.2168 19.8535 11.9004V11.7656C19.8535 11.4531 19.8145 11.1582 19.7363 10.8809C19.6621 10.5996 19.5488 10.3516 19.3965 10.1367C19.248 9.91797 19.0605 9.74609 18.834 9.62109C18.6113 9.49609 18.3496 9.43359 18.0488 9.43359C17.752 9.43359 17.4902 9.49609 17.2637 9.62109C17.041 9.74609 16.8535 9.91797 16.7012 10.1367C16.5527 10.3516 16.4414 10.5996 16.3672 10.8809C16.293 11.1582 16.2559 11.4531 16.2559 11.7656ZM24.957 8.66016V9.49219H21.5293V8.66016H24.957ZM22.6895 7.11914H23.7734V13.4297C23.7734 13.6445 23.8066 13.8066 23.873 13.916C23.9395 14.0254 24.0254 14.0977 24.1309 14.1328C24.2363 14.168 24.3496 14.1855 24.4707 14.1855C24.5605 14.1855 24.6543 14.1777 24.752 14.1621C24.8535 14.1426 24.9297 14.127 24.9805 14.1152L24.9863 15C24.9004 15.0273 24.7871 15.0527 24.6465 15.0762C24.5098 15.1035 24.3438 15.1172 24.1484 15.1172C23.8828 15.1172 23.6387 15.0645 23.416 14.959C23.1934 14.8535 23.0156 14.6777 22.8828 14.4316C22.7539 14.1816 22.6895 13.8457 22.6895 13.4238V7.11914ZM32.8965 13.3184C32.8965 13.1621 32.8613 13.0176 32.791 12.8848C32.7246 12.748 32.5859 12.625 32.375 12.5156C32.168 12.4023 31.8555 12.3047 31.4375 12.2227C31.0859 12.1484 30.7676 12.0605 30.4824 11.959C30.2012 11.8574 29.9609 11.7344 29.7617 11.5898C29.5664 11.4453 29.416 11.2754 29.3105 11.0801C29.2051 10.8848 29.1523 10.6562 29.1523 10.3945C29.1523 10.1445 29.207 9.9082 29.3164 9.68555C29.4297 9.46289 29.5879 9.26562 29.791 9.09375C29.998 8.92188 30.2461 8.78711 30.5352 8.68945C30.8242 8.5918 31.1465 8.54297 31.502 8.54297C32.0098 8.54297 32.4434 8.63281 32.8027 8.8125C33.1621 8.99219 33.4375 9.23242 33.6289 9.5332C33.8203 9.83008 33.916 10.1602 33.916 10.5234H32.832C32.832 10.3477 32.7793 10.1777 32.6738 10.0137C32.5723 9.8457 32.4219 9.70703 32.2227 9.59766C32.0273 9.48828 31.7871 9.43359 31.502 9.43359C31.2012 9.43359 30.957 9.48047 30.7695 9.57422C30.5859 9.66406 30.4512 9.7793 30.3652 9.91992C30.2832 10.0605 30.2422 10.209 30.2422 10.3652C30.2422 10.4824 30.2617 10.5879 30.3008 10.6816C30.3438 10.7715 30.418 10.8555 30.5234 10.9336C30.6289 11.0078 30.7773 11.0781 30.9688 11.1445C31.1602 11.2109 31.4043 11.2773 31.7012 11.3438C32.2207 11.4609 32.6484 11.6016 32.9844 11.7656C33.3203 11.9297 33.5703 12.1309 33.7344 12.3691C33.8984 12.6074 33.9805 12.8965 33.9805 13.2363C33.9805 13.5137 33.9219 13.7676 33.8047 13.998C33.6914 14.2285 33.5254 14.4277 33.3066 14.5957C33.0918 14.7598 32.834 14.8887 32.5332 14.9824C32.2363 15.0723 31.9023 15.1172 31.5312 15.1172C30.9727 15.1172 30.5 15.0176 30.1133 14.8184C29.7266 14.6191 29.4336 14.3613 29.2344 14.0449C29.0352 13.7285 28.9355 13.3945 28.9355 13.043H30.0254C30.041 13.3398 30.127 13.5762 30.2832 13.752C30.4395 13.9238 30.6309 14.0469 30.8574 14.1211C31.084 14.1914 31.3086 14.2266 31.5312 14.2266C31.8281 14.2266 32.0762 14.1875 32.2754 14.1094C32.4785 14.0312 32.6328 13.9238 32.7383 13.7871C32.8438 13.6504 32.8965 13.4941 32.8965 13.3184ZM38.0586 8.66016V9.49219H34.6309V8.66016H38.0586ZM35.791 7.11914H36.875V13.4297C36.875 13.6445 36.9082 13.8066 36.9746 13.916C37.041 14.0254 37.127 14.0977 37.2324 14.1328C37.3379 14.168 37.4512 14.1855 37.5723 14.1855C37.6621 14.1855 37.7559 14.1777 37.8535 14.1621C37.9551 14.1426 38.0312 14.127 38.082 14.1152L38.0879 15C38.002 15.0273 37.8887 15.0527 37.748 15.0762C37.6113 15.1035 37.4453 15.1172 37.25 15.1172C36.9844 15.1172 36.7402 15.0645 36.5176 14.959C36.2949 14.8535 36.1172 14.6777 35.9844 14.4316C35.8555 14.1816 35.791 13.8457 35.791 13.4238V7.11914ZM43.0684 13.916V10.6523C43.0684 10.4023 43.0176 10.1855 42.916 10.002C42.8184 9.81445 42.6699 9.66992 42.4707 9.56836C42.2715 9.4668 42.0254 9.41602 41.7324 9.41602C41.459 9.41602 41.2188 9.46289 41.0117 9.55664C40.8086 9.65039 40.6484 9.77344 40.5312 9.92578C40.418 10.0781 40.3613 10.2422 40.3613 10.418H39.2773C39.2773 10.1914 39.3359 9.9668 39.4531 9.74414C39.5703 9.52148 39.7383 9.32031 39.957 9.14062C40.1797 8.95703 40.4453 8.8125 40.7539 8.70703C41.0664 8.59766 41.4141 8.54297 41.7969 8.54297C42.2578 8.54297 42.6641 8.62109 43.0156 8.77734C43.3711 8.93359 43.6484 9.16992 43.8477 9.48633C44.0508 9.79883 44.1523 10.1914 44.1523 10.6641V13.6172C44.1523 13.8281 44.1699 14.0527 44.2051 14.291C44.2441 14.5293 44.3008 14.7344 44.375 14.9062V15H43.2441C43.1895 14.875 43.1465 14.709 43.1152 14.502C43.084 14.291 43.0684 14.0957 43.0684 13.916ZM43.2559 11.1562L43.2676 11.918H42.1719C41.8633 11.918 41.5879 11.9434 41.3457 11.9941C41.1035 12.041 40.9004 12.1133 40.7363 12.2109C40.5723 12.3086 40.4473 12.4316 40.3613 12.5801C40.2754 12.7246 40.2324 12.8945 40.2324 13.0898C40.2324 13.2891 40.2773 13.4707 40.3672 13.6348C40.457 13.7988 40.5918 13.9297 40.7715 14.0273C40.9551 14.1211 41.1797 14.168 41.4453 14.168C41.7773 14.168 42.0703 14.0977 42.3242 13.957C42.5781 13.8164 42.7793 13.6445 42.9277 13.4414C43.0801 13.2383 43.1621 13.041 43.1738 12.8496L43.6367 13.3711C43.6094 13.5352 43.5352 13.7168 43.4141 13.916C43.293 14.1152 43.1309 14.3066 42.9277 14.4902C42.7285 14.6699 42.4902 14.8203 42.2129 14.9414C41.9395 15.0586 41.6309 15.1172 41.2871 15.1172C40.8574 15.1172 40.4805 15.0332 40.1562 14.8652C39.8359 14.6973 39.5859 14.4727 39.4062 14.1914C39.2305 13.9062 39.1426 13.5879 39.1426 13.2363C39.1426 12.8965 39.209 12.5977 39.3418 12.3398C39.4746 12.0781 39.666 11.8613 39.916 11.6895C40.166 11.5137 40.4668 11.3809 40.8184 11.291C41.1699 11.2012 41.5625 11.1562 41.9961 11.1562H43.2559ZM46.9414 9.65625V15H45.8574V8.66016H46.9121L46.9414 9.65625ZM48.9219 8.625L48.916 9.63281C48.8262 9.61328 48.7402 9.60156 48.6582 9.59766C48.5801 9.58984 48.4902 9.58594 48.3887 9.58594C48.1387 9.58594 47.918 9.625 47.7266 9.70312C47.5352 9.78125 47.373 9.89062 47.2402 10.0312C47.1074 10.1719 47.002 10.3398 46.9238 10.5352C46.8496 10.7266 46.8008 10.9375 46.7773 11.168L46.4727 11.3438C46.4727 10.9609 46.5098 10.6016 46.584 10.2656C46.6621 9.92969 46.7812 9.63281 46.9414 9.375C47.1016 9.11328 47.3047 8.91016 47.5508 8.76562C47.8008 8.61719 48.0977 8.54297 48.4414 8.54297C48.5195 8.54297 48.6094 8.55273 48.7109 8.57227C48.8125 8.58789 48.8828 8.60547 48.9219 8.625ZM52.8711 8.66016V9.49219H49.4434V8.66016H52.8711ZM50.6035 7.11914H51.6875V13.4297C51.6875 13.6445 51.7207 13.8066 51.7871 13.916C51.8535 14.0254 51.9395 14.0977 52.0449 14.1328C52.1504 14.168 52.2637 14.1855 52.3848 14.1855C52.4746 14.1855 52.5684 14.1777 52.666 14.1621C52.7676 14.1426 52.8438 14.127 52.8945 14.1152L52.9004 15C52.8145 15.0273 52.7012 15.0527 52.5605 15.0762C52.4238 15.1035 52.2578 15.1172 52.0625 15.1172C51.7969 15.1172 51.5527 15.0645 51.3301 14.959C51.1074 14.8535 50.9297 14.6777 50.7969 14.4316C50.668 14.1816 50.6035 13.8457 50.6035 13.4238V7.11914Z" fill="#1890FF"/>
<path d="M2 1H60V-1H2V1ZM61 2V20H63V2H61ZM60 21H2V23H60V21ZM1 20V2H-1V20H1ZM2 21C1.44772 21 1 20.5523 1 20H-1C-1 21.6569 0.343149 23 2 23V21ZM61 20C61 20.5523 60.5523 21 60 21V23C61.6569 23 63 21.6569 63 20H61ZM60 1C60.5523 1 61 1.44772 61 2H63C63 0.343145 61.6569 -1 60 -1V1ZM2 -1C0.343146 -1 -1 0.343145 -1 2H1C1 1.44772 1.44771 1 2 1V-1Z" fill="#91D5FF"/>
</svg>
